<mxfile host="65bd71144e">
    <diagram id="TPwKPCr_CbAVBi3QqlK2" name="Page-1">
        <mxGraphModel dx="348" dy="707" grid="1" gridSize="10" guides="1" tooltips="1" connect="1" arrows="1" fold="1" page="1" pageScale="1" pageWidth="850" pageHeight="1100" math="0" shadow="0">
            <root>
                <mxCell id="0"/>
                <mxCell id="1" parent="0"/>
                <mxCell id="5" value="Global Executoin Context" style="text;html=1;align=center;verticalAlign=middle;resizable=0;points=[];autosize=1;strokeColor=none;fillColor=none;" vertex="1" parent="1">
                    <mxGeometry y="48" width="160" height="30" as="geometry"/>
                </mxCell>
                <mxCell id="6" value="Memory Creation phase" style="text;html=1;align=center;verticalAlign=middle;resizable=0;points=[];autosize=1;strokeColor=none;fillColor=none;strokeWidth=0;" vertex="1" parent="1">
                    <mxGeometry x="10" y="100" width="150" height="30" as="geometry"/>
                </mxCell>
                <mxCell id="7" value="username: undefined&lt;div&gt;userage: undefined&lt;/div&gt;&lt;div&gt;functoin sayHi(){&lt;/div&gt;&lt;div&gt;console..log(&quot;hello world&quot;);&lt;/div&gt;&lt;div&gt;}&lt;/div&gt;" style="whiteSpace=wrap;html=1;aspect=fixed;" vertex="1" parent="1">
                    <mxGeometry x="20" y="120" width="130" height="130" as="geometry"/>
                </mxCell>
                <mxCell id="8" value="code execution phase" style="text;html=1;align=center;verticalAlign=middle;resizable=0;points=[];autosize=1;strokeColor=none;fillColor=none;" vertex="1" parent="1">
                    <mxGeometry x="190" y="100" width="140" height="30" as="geometry"/>
                </mxCell>
                <mxCell id="9" value="username: &quot;whoami&quot;&lt;div&gt;userage: 17&lt;/div&gt;&lt;div&gt;&lt;br&gt;&lt;/div&gt;&lt;div&gt;&lt;br&gt;&lt;/div&gt;&lt;div&gt;&lt;br&gt;&lt;/div&gt;&lt;div&gt;&lt;br&gt;&lt;/div&gt;&lt;div&gt;&lt;br&gt;&lt;/div&gt;&lt;div&gt;&lt;br&gt;&lt;/div&gt;&lt;div&gt;local execution context&lt;/div&gt;" style="whiteSpace=wrap;html=1;aspect=fixed;" vertex="1" parent="1">
                    <mxGeometry x="170" y="120" width="200" height="200" as="geometry"/>
                </mxCell>
                <mxCell id="12" value="a: undefined&lt;div&gt;b: undefined&lt;/div&gt;" style="rounded=0;whiteSpace=wrap;html=1;" vertex="1" parent="1">
                    <mxGeometry x="210" y="290" width="120" height="140" as="geometry"/>
                </mxCell>
            </root>
        </mxGraphModel>
    </diagram>
</mxfile>
